<?xml version="1.0" standalone="no"?>
<!DOCTYPE svg PUBLIC "-//W3C//DTD SVG 20010904//EN"
 "http://www.w3.org/TR/2001/REC-SVG-20010904/DTD/svg10.dtd">
<svg version="1.0" xmlns="http://www.w3.org/2000/svg"
 width="2048.000000pt" height="1536.000000pt" viewBox="0 0 2048.000000 1536.000000"
 preserveAspectRatio="xMidYMid meet">

<g transform="translate(0.000000,1536.000000) scale(0.100000,-0.100000)"
fill="#000000" stroke="none">
<path d="M0 7680 l0 -7680 10240 0 10240 0 0 7680 0 7680 -10240 0 -10240 0 0
-7680z m10375 4391 c25 -14 48 -56 143 -272 101 -227 112 -259 109 -299 -6
-56 -201 -424 -242 -455 -22 -17 -45 -21 -133 -23 -158 -4 -152 -10 -284 237
-61 113 -112 219 -115 237 -4 25 12 72 77 220 131 301 150 339 172 353 54 34
217 35 273 2z m-18 -1191 c18 -10 38 -32 46 -47 8 -15 36 -116 62 -223 46
-191 166 -680 345 -1410 49 -201 118 -484 154 -630 164 -671 478 -1954 515
-2104 22 -90 32 -113 54 -129 21 -17 31 -18 50 -10 13 6 203 246 422 535 220
287 462 606 539 707 77 101 154 192 171 202 55 34 135 15 167 -39 9 -15 134
-353 279 -750 280 -773 278 -768 334 -746 13 5 106 95 206 199 101 105 246
255 323 335 78 80 484 502 904 937 444 460 775 796 793 803 47 20 109 7 141
-29 56 -62 62 -35 -135 -601 -47 -135 -162 -468 -257 -740 -94 -272 -216 -623
-270 -780 -565 -1640 -864 -2490 -887 -2524 -15 -21 -38 -45 -50 -53 -34 -22
-109 -12 -139 18 -14 15 -76 161 -163 384 -76 198 -230 593 -340 878 -111 285
-201 531 -201 548 0 91 101 153 183 114 20 -9 42 -26 50 -38 8 -12 121 -300
252 -640 131 -340 244 -625 250 -634 15 -20 71 -21 89 -2 8 8 60 147 116 309
114 328 517 1492 809 2335 105 303 191 562 191 577 0 34 -39 63 -73 55 -12 -4
-303 -297 -652 -659 -347 -359 -823 -853 -1060 -1098 -236 -245 -742 -768
-1122 -1162 -733 -759 -719 -743 -676 -790 15 -17 40 -18 360 -18 310 0 344 2
341 16 -2 9 -57 43 -122 77 -135 70 -159 94 -159 159 0 75 52 128 126 128 43
0 835 -383 885 -428 27 -25 32 -36 32 -76 0 -26 -7 -60 -15 -76 -33 -63 16
-60 -991 -60 l-916 0 -39 39 c-35 35 -39 44 -39 90 0 51 1 53 87 144 94 99
1085 1128 1292 1342 70 72 241 248 380 393 l254 262 -186 513 c-102 281 -216
596 -254 700 -48 132 -72 187 -83 187 -8 0 -29 -20 -47 -43 -17 -23 -262 -346
-544 -717 -281 -371 -514 -682 -516 -691 -3 -9 20 -119 51 -245 35 -143 53
-238 49 -254 -6 -22 -154 -290 -812 -1463 -106 -190 -161 -298 -161 -317 0
-61 -36 -58 905 -75 2581 -46 2536 -45 2567 -61 90 -46 87 -191 -5 -229 -34
-14 91 -16 -2689 35 -1184 21 -1120 16 -1154 82 -37 71 -51 42 506 1040 287
513 536 957 552 986 l30 52 -96 388 c-52 213 -147 599 -211 857 -64 259 -143
578 -175 710 -32 132 -131 535 -220 895 -89 360 -186 754 -215 875 -196 802
-245 988 -261 1006 -21 24 -66 25 -86 2 -9 -10 -57 -184 -107 -388 -108 -443
-318 -1297 -436 -1775 -47 -190 -118 -480 -159 -645 -40 -165 -110 -448 -155
-630 -269 -1093 -312 -1272 -309 -1295 2 -14 115 -223 250 -465 136 -242 380
-678 543 -970 182 -324 299 -544 302 -565 5 -45 -22 -99 -64 -123 -30 -17
-112 -20 -1385 -42 -744 -14 -1582 -29 -1862 -34 -328 -6 -519 -6 -535 1 -99
37 -115 173 -26 228 31 19 73 21 1736 50 l1704 30 25 25 c22 22 23 28 13 55
-6 17 -228 417 -492 889 -343 612 -481 867 -481 889 0 16 23 123 50 237 28
114 50 218 50 231 0 33 -1087 1466 -1109 1462 -10 -2 -96 -228 -267 -698
l-251 -695 40 -45 c23 -25 158 -166 302 -315 924 -955 1639 -1702 1656 -1729
10 -17 19 -41 19 -54 0 -40 -28 -91 -62 -112 -33 -20 -44 -20 -955 -18 l-923
3 -31 31 c-40 40 -50 102 -24 150 21 39 50 55 561 303 214 103 322 151 345
151 75 0 136 -69 126 -143 -8 -56 -40 -84 -167 -147 -79 -39 -110 -59 -110
-72 0 -17 20 -18 345 -18 l345 0 16 25 c9 14 14 34 10 48 -4 18 -1160 1226
-1920 2007 -67 69 -241 249 -386 400 -145 151 -328 340 -406 420 -78 80 -286
296 -463 480 -177 184 -333 339 -347 345 -30 11 -53 0 -72 -36 -12 -22 20
-121 373 -1139 212 -613 461 -1331 552 -1595 91 -264 173 -488 183 -499 21
-22 66 -24 85 -5 8 8 122 295 255 639 133 344 250 635 262 647 76 81 218 28
218 -82 0 -31 -38 -140 -141 -406 -77 -200 -210 -542 -294 -759 -84 -217 -172
-444 -195 -505 -52 -137 -86 -175 -155 -175 -47 0 -47 0 -110 70 -8 9 -113
301 -234 650 -120 349 -258 748 -306 885 -48 138 -149 430 -225 650 -76 220
-290 836 -474 1369 -186 535 -336 984 -336 1003 0 105 121 163 201 96 18 -16
398 -406 843 -868 1270 -1316 1328 -1375 1348 -1386 14 -8 28 -7 48 1 26 11
45 58 290 733 144 397 269 735 277 750 30 60 109 83 170 50 21 -12 211 -254
567 -723 295 -388 547 -711 560 -718 33 -17 70 -1 84 35 6 15 65 251 131 523
139 570 607 2482 777 3175 64 259 130 531 148 605 39 160 56 197 99 215 50 22
185 19 224 -5z m-5723 -1770 c190 -91 184 -76 110 -307 -30 -97 -64 -183 -75
-194 -27 -27 -89 -26 -116 4 -11 12 -58 127 -103 255 -75 214 -81 236 -70 263
15 36 56 61 88 53 13 -2 88 -36 166 -74z m11439 50 c47 -37 44 -58 -43 -300
-52 -147 -87 -231 -101 -242 -31 -26 -91 -23 -117 5 -22 24 -122 315 -122 357
0 42 23 61 158 130 147 74 184 82 225 50z m-6720 -3354 c18 -7 46 -28 62 -47
17 -19 201 -261 409 -537 209 -276 383 -499 387 -495 4 5 177 238 384 518 208
281 387 520 398 533 43 47 119 48 166 1 38 -37 46 -81 23 -129 -28 -61 -874
-1227 -904 -1244 -36 -22 -106 -20 -144 3 -17 11 -106 121 -207 257 -783 1063
-727 984 -727 1030 0 48 28 90 74 110 39 17 40 17 79 0z"/>
<path d="M10206 11668 c-14 -13 -37 -52 -51 -87 l-26 -64 52 -108 c29 -60 56
-109 61 -109 11 0 108 196 108 219 0 32 -57 149 -79 160 -28 15 -37 14 -65
-11z"/>
</g>
</svg>
